<?xml version="1.0" standalone="no"?>
<!DOCTYPE svg PUBLIC "-//W3C//DTD SVG 20010904//EN"
 "http://www.w3.org/TR/2001/REC-SVG-20010904/DTD/svg10.dtd">
<svg version="1.0" xmlns="http://www.w3.org/2000/svg"
 width="543.000000pt" height="164.000000pt" viewBox="0 0 543.000000 164.000000"
 preserveAspectRatio="xMidYMid meet">

<g transform="translate(0.000000,164.000000) scale(0.100000,-0.100000)"
fill="#000000" stroke="none">
<path d="M587 1440 c-3 -14 -12 -19 -27 -18 -32 4 -37 -20 -6 -28 18 -4 26
-13 26 -28 0 -12 4 -26 9 -31 5 -6 11 -20 13 -33 5 -34 23 -22 22 15 -1 22 3
30 12 26 8 -3 14 -9 14 -14 0 -5 7 -9 15 -9 28 0 15 30 -20 47 -33 16 -51 39
-22 27 18 -6 52 32 37 41 -6 4 -17 1 -25 -5 -12 -10 -15 -9 -15 9 0 27 -26 28
-33 1z"/>
<path d="M493 1341 c3 -14 0 -17 -14 -14 -11 3 -19 0 -19 -5 0 -15 32 -31 49
-24 7 2 4 -5 -8 -17 -25 -25 -26 -31 -7 -57 13 -17 15 -17 21 -3 4 11 14 15
26 12 20 -6 27 11 9 22 -19 12 -11 37 9 30 11 -3 22 -2 25 3 7 12 -22 52 -40
52 -8 0 -14 5 -14 10 0 6 -10 10 -21 10 -16 0 -20 -5 -16 -19z"/>
<path d="M351 1261 c-15 -27 -97 -71 -109 -59 -10 10 -32 3 -32 -10 0 -4 34
-34 75 -66 42 -33 74 -62 73 -65 -2 -3 -15 -29 -30 -56 -36 -70 -49 -125 -50
-210 0 -129 38 -228 128 -324 162 -175 428 -199 623 -56 230 169 255 503 52
706 -181 181 -474 187 -656 13 -40 -39 -48 -43 -65 -32 -28 18 -25 24 17 45
21 10 44 30 53 45 14 27 14 28 -20 57 -42 36 -46 37 -59 12z m54 -62 c-3 -4
-25 -18 -49 -32 -30 -17 -48 -21 -60 -15 -25 14 -19 28 17 43 19 8 40 21 47
30 12 14 15 14 31 -1 10 -9 16 -20 14 -25z m470 16 c25 -8 32 -13 19 -14 -23
-1 -44 -19 -44 -38 0 -23 47 -63 73 -63 39 0 52 23 34 60 -16 32 -14 32 36 -3
26 -18 27 -21 12 -37 -34 -38 24 -104 86 -98 29 3 34 -1 55 -42 44 -87 55
-188 30 -293 -16 -69 -26 -85 -19 -29 10 78 -40 132 -122 132 -68 0 -117 -33
-141 -95 -54 -142 117 -230 225 -116 41 43 28 14 -27 -63 -35 -48 -36 -49 -50
-27 -14 21 -53 28 -87 15 -28 -11 -38 -53 -20 -81 16 -23 15 -24 -32 -45 -35
-16 -73 -22 -143 -24 -52 -1 -85 0 -72 2 13 3 28 16 34 30 10 20 8 28 -12 49
-26 28 -52 32 -73 11 -11 -12 -15 -8 -24 25 -10 37 -10 38 11 24 31 -22 63
-18 81 9 14 21 14 28 2 58 -17 42 -61 78 -93 78 -34 0 -58 -39 -44 -75 l10
-27 -36 31 c-66 59 -130 68 -161 25 l-20 -26 -24 53 c-21 48 -24 68 -24 174 0
116 1 122 34 187 54 109 146 189 266 230 60 21 201 23 260 3z m49 -61 c21 -20
20 -24 -4 -24 -10 0 -24 9 -30 20 -8 16 -8 20 4 20 8 0 22 -7 30 -16z m144
-60 c27 -19 29 -44 3 -44 -21 0 -54 38 -45 52 7 12 17 10 42 -8z m7 -338 c18
-8 38 -23 44 -34 29 -53 -2 -127 -64 -156 -32 -16 -44 -16 -76 -7 -39 12 -69
50 -69 86 0 39 34 88 74 106 50 22 48 22 91 5z m-434 -156 c22 -13 52 -67 44
-80 -20 -32 -85 19 -85 66 0 26 11 30 41 14z m-152 -24 c59 -31 112 -113 97
-151 -8 -21 -55 -19 -93 5 -60 36 -111 128 -86 153 11 12 53 8 82 -7z m520
-100 c18 -22 2 -48 -27 -44 -31 4 -38 20 -17 42 20 20 29 20 44 2z m-321 -58
c16 -16 15 -28 -2 -28 -17 0 -38 24 -29 33 9 10 17 9 31 -5z m-45 -33 c19 -27
13 -31 -28 -15 -23 9 -25 13 -15 25 17 20 22 19 43 -10z"/>
<path d="M882 1058 c-22 -22 -13 -59 23 -95 29 -29 40 -34 71 -31 45 4 59 31
38 74 -25 52 -102 82 -132 52z m92 -49 c20 -24 24 -34 16 -45 -20 -23 -90 21
-90 58 0 30 45 22 74 -13z"/>
<path d="M1420 790 l0 -260 85 0 85 0 0 260 0 260 -85 0 -85 0 0 -260z"/>
<path d="M2250 1046 c0 -3 29 -80 65 -171 36 -92 65 -171 65 -176 0 -5 -20 -9
-44 -9 -44 0 -44 -1 -60 -47 -9 -26 -16 -48 -16 -50 0 -2 38 -3 84 -3 l84 0
11 -30 10 -30 86 0 c48 0 85 4 83 9 -1 5 -48 122 -103 260 l-100 251 -82 0
c-46 0 -83 -2 -83 -4z"/>
<path d="M2840 790 l0 -260 85 0 85 0 0 260 0 260 -85 0 -85 0 0 -260z"/>
<path d="M3040 1000 l0 -49 63 -3 62 -3 0 -55 0 -55 -62 -3 -63 -3 0 -39 0
-39 63 -3 62 -3 0 -55 0 -55 -62 -3 -63 -3 0 -49 0 -50 98 0 98 0 52 53 c49
49 52 56 52 103 0 41 -5 55 -25 74 l-25 24 25 26 c20 21 25 36 25 81 0 53 -2
56 -53 107 l-53 52 -97 0 -97 0 0 -50z"/>
<path d="M3590 790 l0 -260 85 0 85 0 0 105 0 104 83 3 82 3 3 48 3 47 -85 0
-86 0 0 105 0 105 -85 0 -85 0 0 -260z"/>
<path d="M3790 1000 l0 -50 55 0 c52 0 55 -1 55 -25 0 -25 1 -25 80 -25 l80 0
0 75 0 75 -135 0 -135 0 0 -50z"/>
<path d="M4340 790 c0 -167 4 -260 10 -260 6 0 10 93 10 260 0 167 -4 260 -10
260 -6 0 -10 -93 -10 -260z"/>
<path d="M4640 1045 c0 -3 77 -120 170 -260 l170 -255 90 0 c50 0 90 3 90 6 0
3 -77 120 -171 260 l-172 254 -88 0 c-49 0 -89 -2 -89 -5z"/>
<path d="M4946 999 l-28 -51 43 -64 44 -65 23 28 c12 15 34 53 49 83 14 30 34
67 44 82 11 14 19 29 19 32 0 3 -37 6 -82 6 l-83 0 -29 -51z"/>
<path d="M2152 827 c-39 -106 -81 -216 -92 -245 l-20 -52 83 0 83 0 47 145 48
145 -36 97 c-20 54 -38 99 -39 100 -1 1 -34 -84 -74 -190z"/>
<path d="M4703 650 l-82 -120 98 0 98 0 31 50 32 51 -47 69 c-25 39 -46 70
-47 70 -1 -1 -38 -55 -83 -120z"/>
<path d="M1710 665 c0 -35 0 -35 -45 -35 l-45 0 0 -50 0 -50 120 0 120 0 0 85
0 85 -75 0 -75 0 0 -35z"/>
<path d="M3888 658 c-3 -20 -10 -23 -50 -26 l-48 -3 0 -50 0 -49 135 0 135 0
0 75 0 75 -84 0 c-80 0 -85 -1 -88 -22z"/>
</g>
</svg>
